# xmcd
#
# Track frame offsets:
#	150
#	15060
#	27175
#	44750
#	59525
#	76132
#	89707
#	106592
#	120790
#	138012
#	152912
#	172650
#	191937
#	206922
#	224940
#	243375
#
# Disc length: 3533 seconds
#
# Revision: 2
# Processed by: cddbd v1.5.2PL0 Copyright (c) Steve Scherf et al.
# Submitted via: EZCDAudioConverter 8.3.2.1
#
DISCID=d50dcb10
DTITLE=Από τη Σμύρνη στην Κωνσταντινούπολη
DYEAR=2010
DGENRE=Παραδοσιακή
TTITLE0=Άνευ ερμηνευτού - Πολίτικο συρτό [Κωνσταντινούπολη]
TTITLE1=Άνευ ερμηνευτού - Κόνιαλης [παραδοσιακό Καππαδοκίας]
TTITLE2=Άνευ ερμηνευτού - Σαν τα μάρμαρα της Πόλης [αργός καρσιλαμάς]
TTITLE3=Άνευ ερμηνευτού - Πολίτικο χασάπικο
TTITLE4=Σαραγούδα Γιασεμί - Μόρτισσα [Αντώνης Διαμαντίδης ή Νταλγκάς]
TTITLE5=Άνευ ερμηνευτού - Έχε γεια Παναγιά [Κωνσταντινούπολη]
TTITLE6=Άνευ ερμηνευτού - Αϊβαλιώτικο [ζεϊμπέκικο Αϊβαλί]
TTITLE7=Σαραγούδα Γιασεμί - Το Χαρικλάκι [Παναγιώτης Τούντας]
TTITLE8=Άνευ ερμηνευτού - Μπαμ
TTITLE9=Άνευ ερμηνευτού - Σέρβικο πολίτικο
TTITLE10=Σαραγούδα Γιασεμί - Χορεύεις χαϊδεμένη μου [καρσιλαμάς σε 98, Μελί Ερ
TTITLE10=υθραίας]
TTITLE11=Άνευ ερμηνευτού - Σηλυμβριανό [Σηλυμβρία]
TTITLE12=Άνευ ερμηνευτού - Πέργαμος [ζεϊμπέκικο Περγάμου]
TTITLE13=Σαραγούδα Γιασεμί - Ολμάς πιπίνι μου (Από τα γλυκά σου μάτια)
TTITLE14=Άνευ ερμηνευτού - Απτάλικο [ζεϊμπέκικο]
TTITLE15=Άνευ ερμηνευτού - Σ΄αγαπώ γιατί είσαι ωραία [γνωστό από Αριστείδη Μόσ
TTITLE15=χο]
EXTD=
EXTT0=
EXTT1=
EXTT2=
EXTT3=
EXTT4=
EXTT5=
EXTT6=
EXTT7=
EXTT8=
EXTT9=
EXTT10=
EXTT11=
EXTT12=
EXTT13=
EXTT14=
EXTT15=
PLAYORDER=
